<?xml version="1.0" encoding="UTF-8"?>
<svg width="1200pt" height="1200pt" version="1.1" viewBox="0 0 1200 1200" xmlns="http://www.w3.org/2000/svg">
 <path d="m1137.5 309.37c-4.0781-32.156-13.922-62.391-28.219-91.312-13.922-28.078-32.062-53.156-54.234-75.141-21.844-21.703-46.688-39.375-74.531-53.062-29.859-14.766-61.219-24.375-94.312-27.938-47.766-5.2969-93.938 0.70312-138.71 18.469-37.219 14.766-69.703 36.375-97.922 64.312-47.062 46.688-93.844 93.703-140.76 140.63-3.7031 3.7031-7.3125 7.6875-11.391 12h4.5469c14.766-1.2188 29.531-2.7656 44.391-3.6094 21.141-1.0781 42.141 0.9375 63 4.4531 23.391 3.8438 46.312 9.6094 68.391 18.703 2.5312 1.0781 3.8438 0.23438 5.3906-1.4531 10.547-11.062 21-22.078 31.781-32.859 12.234-12.375 24.703-24.375 36.938-36.703 14.062-14.297 30.234-25.312 48.938-32.391 26.766-10.219 54.141-12.844 82.312-6.8438 35.297 7.5469 63.469 26.297 85.078 54.703 21.469 28.312 30.469 60.844 27.703 96.375-2.8594 36.938-18.469 67.781-44.859 93.844-63.375 62.766-126.24 125.86-189.14 189-11.625 11.625-23.391 23.062-37.688 31.547-19.453 11.625-40.547 18.375-63 19.922-28.688 2.0625-55.922-4.0781-81-18.234-30.938-17.531-52.078-43.219-63.609-76.922-0.84375-2.3906-2.0625-4.6875-3.6094-8.1562-6.8438 5.5312-13.453 9.9375-18.938 15.469-28.453 28.078-56.625 56.391-84.844 84.609-1.0781 1.0781-2.625 2.1562-3 3.6094-0.46875 1.6875-0.70312 3.8438 0 5.2969 1.5469 3.1406 3.9375 5.8594 5.8594 9 19.078 30.844 43.781 56.625 73.688 77.156 36 24.703 75.375 41.391 118.92 48.375 22.547 3.6094 45.141 4.6875 67.781 3 30.703-2.2969 60.469-9.375 88.781-21.375 28.922-12.141 55.547-28.219 78.609-49.688 17.156-15.938 33.844-32.531 50.391-49.078 51.375-51.234 102.47-102.7 154.08-153.71 22.219-21.938 42.609-45.141 57.938-72.375 16.922-30 28.922-61.781 34.078-96 4.2188-27.703 4.7812-55.688 1.2188-83.625z"/>
 <path d="m690 903.94c-19.781 1.6875-39.609 2.8594-59.531 1.6875-35.297-1.9219-69.609-8.2969-102.7-20.859-5.2969-2.0625-8.3906-1.6875-12.703 2.7656-20.297 21.141-41.156 41.766-61.922 62.391-13.219 13.219-27.703 24.703-44.859 32.531-36.609 16.547-73.922 18.469-111.7 4.5469-34.453-12.703-60.234-35.766-77.062-68.297-14.297-27.703-19.312-57.375-14.156-88.312 4.9219-28.922 16.688-54.609 37.547-75.609 11.062-11.156 21.938-22.219 33-33.375 20.766-20.859 41.531-41.766 62.297-62.625 14.766-14.859 29.625-29.625 44.391-44.391 7.4531-7.5469 14.766-15.234 22.312-22.688 11.391-11.297 23.062-22.312 34.219-33.938 17.297-18.141 36.844-32.766 60.375-41.625 25.312-9.6094 51.375-11.625 77.766-6 47.766 10.078 81.938 37.312 102.23 81.844 2.5312 5.625 4.6875 11.531 7.4531 18.375 5.8594-4.4531 12.141-8.1562 17.156-13.078 29.531-29.156 58.781-58.688 88.219-87.938 3-3 2.8594-5.5312 0.84375-8.7656-11.766-18-24.234-35.391-39.375-50.859-27.938-28.547-60.469-50.297-97.453-65.156-22.312-9-45.469-14.859-69.375-18.141-20.297-2.625-40.547-3.4688-60.703-1.7812-31.453 2.625-61.922 10.078-90.938 22.781-26.391 11.531-51 26.062-72.234 45.609-17.766 16.312-35.062 33.234-52.078 50.297-55.078 54.844-110.16 109.78-165 164.86-11.859 11.859-22.922 24.609-32.625 38.391-14.766 21-26.625 43.547-35.625 67.688-11.766 31.781-17.531 64.547-17.531 98.391 0 27 3.4688 53.391 10.922 79.219 8.625 29.766 21.844 57.609 39.375 83.297 15.938 23.391 34.781 44.062 57 61.688 35.859 28.547 76.219 47.391 121.22 56.766 20.297 4.2188 40.781 6.375 61.453 6.2344 23.625-0.23438 47.156-3.375 69.938-9.2344 21.703-5.5312 42.234-14.625 62.156-24.938 17.062-8.8594 33.234-19.219 47.297-32.062 22.922-20.859 44.859-42.844 66.938-64.547 28.312-27.844 56.531-56.062 84.703-84.141 7.3125-7.2188 14.297-14.766 21.469-22.078 0-0.375-0.23438-0.60938-0.375-0.9375-4.0781 0.60938-8.1562 1.5469-12.375 1.9219z"/>
</svg>
